<svg width="16" height="17" viewBox="0 0 16 17" fill="none" xmlns="http://www.w3.org/2000/svg">
<path d="M12.6654 6.50016C12.6654 7.46683 12.3787 8.35351 11.8854 9.09351C11.1654 10.1602 10.0254 10.9135 8.6987 11.1068C8.47203 11.1468 8.2387 11.1668 7.9987 11.1668C7.7587 11.1668 7.52536 11.1468 7.2987 11.1068C5.97203 10.9135 4.83203 10.1602 4.11203 9.09351C3.6187 8.35351 3.33203 7.46683 3.33203 6.50016C3.33203 3.92016 5.4187 1.8335 7.9987 1.8335C10.5787 1.8335 12.6654 3.92016 12.6654 6.50016Z" stroke="#292D32" stroke-width="1.5" stroke-linecap="round" stroke-linejoin="round"/>
<path d="M14.1674 12.8134L13.0674 13.0734C12.8207 13.1334 12.6274 13.3201 12.574 13.5668L12.3407 14.5468C12.214 15.0801 11.534 15.2401 11.1807 14.8201L8.0007 11.1668L4.8207 14.8268C4.46737 15.2468 3.78737 15.0868 3.6607 14.5534L3.42737 13.5734C3.36737 13.3268 3.17404 13.1334 2.93404 13.0801L1.83404 12.8201C1.32737 12.7001 1.14737 12.0668 1.51404 11.7001L4.11404 9.1001C4.83404 10.1668 5.97404 10.9201 7.3007 11.1134C7.52737 11.1534 7.7607 11.1734 8.0007 11.1734C8.2407 11.1734 8.47404 11.1534 8.7007 11.1134C10.0274 10.9201 11.1674 10.1668 11.8874 9.1001L14.4874 11.7001C14.854 12.0601 14.674 12.6934 14.1674 12.8134Z" stroke="#292D32" stroke-width="1.5" stroke-linecap="round" stroke-linejoin="round"/>
<path d="M8.38535 4.4865L8.77868 5.27317C8.83201 5.37983 8.97201 5.4865 9.09868 5.5065L9.81201 5.6265C10.2653 5.69983 10.372 6.03317 10.0453 6.35984L9.49201 6.91316C9.39868 7.00649 9.34535 7.1865 9.37868 7.31984L9.53868 8.0065C9.66535 8.5465 9.37868 8.75982 8.89868 8.47316L8.23201 8.07983C8.11201 8.00649 7.91201 8.00649 7.79201 8.07983L7.12535 8.47316C6.64535 8.75316 6.35868 8.5465 6.48535 8.0065L6.64535 7.31984C6.67201 7.19317 6.62535 7.00649 6.53201 6.91316L5.97868 6.35984C5.65201 6.03317 5.75868 5.7065 6.21201 5.6265L6.92535 5.5065C7.04535 5.4865 7.18535 5.37983 7.23868 5.27317L7.63201 4.4865C7.82535 4.05984 8.17201 4.05984 8.38535 4.4865Z" stroke="#292D32" stroke-width="1.5" stroke-linecap="round" stroke-linejoin="round"/>
</svg>
