<svg width="13" height="12" viewBox="0 0 13 12" fill="none" xmlns="http://www.w3.org/2000/svg">
<path fill-rule="evenodd" clip-rule="evenodd" d="M6.5 0C5.14256 0 5.01423 2.36435 4.20608 3.19972C3.39792 4.03508 0.885466 3.07995 0.536391 4.56269C0.18805 6.04618 2.44824 6.54953 2.72691 7.82229C3.00705 9.09505 1.62615 10.8833 2.80611 11.7732C3.98607 12.6624 5.25623 10.6498 6.5 10.6498C7.74376 10.6498 9.01392 12.6624 10.1939 11.7732C11.3738 10.8833 9.99368 9.09505 10.2731 7.82229C10.5525 6.54953 12.8119 6.04618 12.4636 4.56269C12.1153 3.07995 9.60207 4.03508 8.79465 3.19972C7.9865 2.36435 7.85743 0 6.5 0Z" fill="#F5AA00"/>
</svg>
