<svg width="16" height="21" viewBox="0 0 16 21" fill="none" xmlns="http://www.w3.org/2000/svg">
<path opacity="0.3" fill-rule="evenodd" clip-rule="evenodd" d="M3.9987 2.14526H11.9987C12.3669 2.14526 12.6654 2.51836 12.6654 2.9786V10.4786C12.6654 10.9388 12.3669 11.3119 11.9987 11.3119H3.9987C3.63051 11.3119 3.33203 10.9388 3.33203 10.4786V2.9786C3.33203 2.51836 3.63051 2.14526 3.9987 2.14526ZM4.9987 4.64526C4.8146 4.64526 4.66536 4.83181 4.66536 5.06193C4.66536 5.29205 4.8146 5.4786 4.9987 5.4786H8.9987C9.18279 5.4786 9.33203 5.29205 9.33203 5.06193C9.33203 4.83181 9.18279 4.64526 8.9987 4.64526H4.9987ZM4.9987 6.31193C4.8146 6.31193 4.66536 6.49848 4.66536 6.7286C4.66536 6.95872 4.8146 7.14526 4.9987 7.14526H6.9987C7.18279 7.14526 7.33203 6.95872 7.33203 6.7286C7.33203 6.49848 7.18279 6.31193 6.9987 6.31193H4.9987Z" fill="white"/>
<path fill-rule="evenodd" clip-rule="evenodd" d="M2.5285 5.95587L8 10.8954L13.4715 5.95587C13.6207 5.82114 13.8291 5.86314 13.9369 6.0497C13.9779 6.1207 14 6.20606 14 6.29365V14.6454C14 15.5659 13.403 16.3121 12.6667 16.3121H3.33333C2.59695 16.3121 2 15.5659 2 14.6454V6.29365C2 6.06353 2.14924 5.87698 2.33333 5.87698C2.4034 5.87698 2.47169 5.90459 2.5285 5.95587Z" fill="white"/>
</svg>
