<svg width="17" height="17" viewBox="0 0 17 17" fill="none" xmlns="http://www.w3.org/2000/svg">
<path d="M8.4987 1.8335C12.1807 1.8335 15.1654 4.81816 15.1654 8.50016C15.1654 12.1822 12.1807 15.1668 8.4987 15.1668C4.8167 15.1668 1.83203 12.1822 1.83203 8.50016C1.83203 4.81816 4.8167 1.8335 8.4987 1.8335ZM8.4987 11.1668C8.32189 11.1668 8.15232 11.2371 8.02729 11.3621C7.90227 11.4871 7.83203 11.6567 7.83203 11.8335C7.83203 12.0103 7.90227 12.1799 8.02729 12.3049C8.15232 12.4299 8.32189 12.5002 8.4987 12.5002C8.67551 12.5002 8.84508 12.4299 8.9701 12.3049C9.09513 12.1799 9.16536 12.0103 9.16536 11.8335C9.16536 11.6567 9.09513 11.4871 8.9701 11.3621C8.84508 11.2371 8.67551 11.1668 8.4987 11.1668ZM8.4987 4.8335C7.85776 4.8335 7.24307 5.08811 6.78986 5.54132C6.33664 5.99453 6.08203 6.60922 6.08203 7.25016C6.08203 7.42697 6.15227 7.59654 6.27729 7.72157C6.40232 7.84659 6.57189 7.91683 6.7487 7.91683C6.92551 7.91683 7.09508 7.84659 7.2201 7.72157C7.34513 7.59654 7.41536 7.42697 7.41536 7.25016C7.41559 7.05352 7.46932 6.86065 7.57082 6.69222C7.67232 6.5238 7.81774 6.38617 7.9915 6.29411C8.16526 6.20204 8.3608 6.15901 8.55716 6.16962C8.75351 6.18023 8.94328 6.24409 9.1061 6.35434C9.26893 6.4646 9.39868 6.61709 9.48143 6.79548C9.56418 6.97386 9.59682 7.1714 9.57585 7.36692C9.55488 7.56244 9.48108 7.74857 9.36238 7.90534C9.24367 8.06211 9.08454 8.18362 8.90203 8.25683C8.45136 8.43683 7.83203 8.89816 7.83203 9.66683V9.8335C7.83203 10.0103 7.90227 10.1799 8.02729 10.3049C8.15232 10.4299 8.32189 10.5002 8.4987 10.5002C8.67551 10.5002 8.84508 10.4299 8.9701 10.3049C9.09513 10.1799 9.16536 10.0103 9.16536 9.8335C9.16536 9.67083 9.1987 9.5895 9.33936 9.52016L9.39736 9.4935C9.91791 9.28409 10.3494 8.90013 10.6179 8.40744C10.8863 7.91475 10.975 7.34402 10.8688 6.79309C10.7625 6.24215 10.4679 5.74534 10.0355 5.38781C9.60311 5.03028 9.05978 4.83431 8.4987 4.8335Z" fill="#414158"/>
</svg>
