<svg width="44" height="44" viewBox="0 0 44 44" fill="none" xmlns="http://www.w3.org/2000/svg">
<rect x="0.5" y="0.5" width="43" height="43" rx="21.5" stroke="#171717"/>
<path d="M24.0833 17.4167L19.9167 20.3333M24.0833 26.5833L19.9167 23.6667M19.9167 22C19.9167 22.5525 19.6972 23.0824 19.3065 23.4731C18.9158 23.8638 18.3859 24.0833 17.8333 24.0833C17.2808 24.0833 16.7509 23.8638 16.3602 23.4731C15.9695 23.0824 15.75 22.5525 15.75 22C15.75 21.4475 15.9695 20.9176 16.3602 20.5269C16.7509 20.1362 17.2808 19.9167 17.8333 19.9167C18.3859 19.9167 18.9158 20.1362 19.3065 20.5269C19.6972 20.9176 19.9167 21.4475 19.9167 22ZM28.25 27.4167C28.25 27.9692 28.0305 28.4991 27.6398 28.8898C27.2491 29.2805 26.7192 29.5 26.1667 29.5C25.6141 29.5 25.0842 29.2805 24.6935 28.8898C24.3028 28.4991 24.0833 27.9692 24.0833 27.4167C24.0833 26.8641 24.3028 26.3342 24.6935 25.9435C25.0842 25.5528 25.6141 25.3333 26.1667 25.3333C26.7192 25.3333 27.2491 25.5528 27.6398 25.9435C28.0305 26.3342 28.25 26.8641 28.25 27.4167ZM28.25 16.5833C28.25 17.1359 28.0305 17.6658 27.6398 18.0565C27.2491 18.4472 26.7192 18.6667 26.1667 18.6667C25.6141 18.6667 25.0842 18.4472 24.6935 18.0565C24.3028 17.6658 24.0833 17.1359 24.0833 16.5833C24.0833 16.0308 24.3028 15.5009 24.6935 15.1102C25.0842 14.7195 25.6141 14.5 26.1667 14.5C26.7192 14.5 27.2491 14.7195 27.6398 15.1102C28.0305 15.5009 28.25 16.0308 28.25 16.5833Z" stroke="#494950" stroke-width="1.5" stroke-linecap="round" stroke-linejoin="round"/>
</svg>
