<svg width="40" height="40" viewBox="0 0 40 40" fill="none" xmlns="http://www.w3.org/2000/svg">
<rect x="0.5" y="0.5" width="39" height="39" rx="19.5" fill="white"/>
<rect x="0.5" y="0.5" width="39" height="39" rx="19.5" stroke="#D3E9FD"/>
<path d="M18.7588 20.0825L22.4158 16.4255C22.4889 16.3589 22.5479 16.2784 22.5893 16.1886C22.6307 16.0989 22.6537 16.0017 22.6568 15.9029C22.66 15.8041 22.6434 15.7057 22.6078 15.6134C22.5723 15.5212 22.5186 15.437 22.45 15.3659C22.3813 15.2948 22.2991 15.2381 22.2082 15.1994C22.1172 15.1606 22.0194 15.1404 21.9206 15.1401C21.8217 15.1398 21.7238 15.1593 21.6327 15.1975C21.5415 15.2357 21.4589 15.2918 21.3898 15.3625L21.3718 15.3805L17.1918 19.5595C17.0532 19.6981 16.9754 19.886 16.9754 20.082C16.9754 20.278 17.0532 20.4659 17.1918 20.6045L21.3708 24.7835C21.4382 24.8533 21.5188 24.9091 21.6078 24.9478C21.6968 24.9865 21.7925 25.0073 21.8896 25.0089C21.9866 25.0106 22.083 24.9931 22.1733 24.9575C22.2636 24.922 22.346 24.8689 22.4158 24.8015C22.4856 24.7341 22.5414 24.6535 22.5801 24.5645C22.6188 24.4755 22.6396 24.3798 22.6412 24.2827C22.6429 24.1857 22.6254 24.0893 22.5898 23.999C22.5543 23.9087 22.5012 23.8263 22.4338 23.7565L22.4158 23.7385L18.7588 20.0825Z" fill="#171717" stroke="#171717" stroke-width="0.5"/>
</svg>
