<svg width="25" height="24" viewBox="0 0 25 24" fill="none" xmlns="http://www.w3.org/2000/svg">
<path d="M9.28906 19C9.28906 19.75 9.07906 20.46 8.70906 21.06C8.01906 22.22 6.74906 23 5.28906 23C3.82906 23 2.55906 22.22 1.86906 21.06C1.49906 20.46 1.28906 19.75 1.28906 19C1.28906 16.79 3.07906 15 5.28906 15C7.49906 15 9.28906 16.79 9.28906 19Z" stroke="#171717" stroke-width="1.5" stroke-miterlimit="10" stroke-linecap="round" stroke-linejoin="round"/>
<path d="M3.73047 18.9995L4.72047 19.9895L6.85047 18.0195" stroke="#171717" stroke-width="1.5" stroke-linecap="round" stroke-linejoin="round"/>
<path d="M18.0405 7.04997C17.8005 7.00997 17.5505 6.99998 17.2905 6.99998H7.29047C7.01047 6.99998 6.74047 7.01998 6.48047 7.05998C6.62047 6.77998 6.82047 6.52001 7.06047 6.28001L10.3105 3.02C11.6805 1.66 13.9005 1.66 15.2705 3.02L17.0205 4.78996C17.6605 5.41996 18.0005 6.21997 18.0405 7.04997Z" stroke="#171717" stroke-width="1.5" stroke-linecap="round" stroke-linejoin="round"/>
<path d="M22.2891 12V17C22.2891 20 20.2891 22 17.2891 22H7.91906C8.22906 21.74 8.49906 21.42 8.70906 21.06C9.07906 20.46 9.28906 19.75 9.28906 19C9.28906 16.79 7.49906 15 5.28906 15C4.08906 15 3.01906 15.53 2.28906 16.36V12C2.28906 9.28 3.92906 7.38 6.47906 7.06C6.73906 7.02 7.00906 7 7.28906 7H17.2891C17.5491 7 17.7991 7.00999 18.0391 7.04999C20.6191 7.34999 22.2891 9.26 22.2891 12Z" stroke="#171717" stroke-width="1.5" stroke-linecap="round" stroke-linejoin="round"/>
<path d="M22.2891 12.5H19.2891C18.1891 12.5 17.2891 13.4 17.2891 14.5C17.2891 15.6 18.1891 16.5 19.2891 16.5H22.2891" stroke="#171717" stroke-width="1.5" stroke-linecap="round" stroke-linejoin="round"/>
</svg>
