<svg width="33" height="32" viewBox="0 0 33 32" fill="none" xmlns="http://www.w3.org/2000/svg">
<path d="M32.0449 16C32.0449 7.184 24.8609 0 16.0449 0C7.22892 0 0.0449219 7.184 0.0449219 16C0.0449219 20.64 2.04492 24.816 5.21292 27.744C5.21292 27.76 5.21292 27.76 5.19692 27.776C5.35692 27.936 5.54892 28.064 5.70892 28.208C5.80492 28.288 5.88492 28.368 5.98092 28.432C6.26892 28.672 6.58892 28.896 6.89292 29.12C7.00492 29.2 7.10092 29.264 7.21292 29.344C7.51692 29.552 7.83692 29.744 8.17292 29.92C8.28492 29.984 8.41292 30.064 8.52492 30.128C8.84492 30.304 9.18092 30.464 9.53292 30.608C9.66092 30.672 9.78892 30.736 9.91692 30.784C10.2689 30.928 10.6209 31.056 10.9729 31.168C11.1009 31.216 11.2289 31.264 11.3569 31.296C11.7409 31.408 12.1249 31.504 12.5089 31.6C12.6209 31.632 12.7329 31.664 12.8609 31.68C13.3089 31.776 13.7569 31.84 14.2209 31.888C14.2849 31.888 14.3489 31.904 14.4129 31.92C14.9569 31.968 15.5009 32 16.0449 32C16.5889 32 17.1329 31.968 17.6609 31.92C17.7249 31.92 17.7889 31.904 17.8529 31.888C18.3169 31.84 18.7649 31.776 19.2129 31.68C19.3249 31.664 19.4369 31.616 19.5649 31.6C19.9489 31.504 20.3489 31.424 20.7169 31.296C20.8449 31.248 20.9729 31.2 21.1009 31.168C21.4529 31.04 21.8209 30.928 22.1569 30.784C22.2849 30.736 22.4129 30.672 22.5409 30.608C22.8769 30.464 23.2129 30.304 23.5489 30.128C23.6769 30.064 23.7889 29.984 23.9009 29.92C24.2209 29.728 24.5409 29.552 24.8609 29.344C24.9729 29.28 25.0689 29.2 25.1809 29.12C25.5009 28.896 25.8049 28.672 26.0929 28.432C26.1889 28.352 26.2689 28.272 26.3649 28.208C26.5409 28.064 26.7169 27.92 26.8769 27.776C26.8769 27.76 26.8769 27.76 26.8609 27.744C30.0449 24.816 32.0449 20.64 32.0449 16ZM23.9489 23.952C19.6129 21.04 12.5089 21.04 8.14092 23.952C7.43692 24.416 6.86092 24.96 6.38092 25.552C3.94892 23.088 2.44492 19.712 2.44492 16C2.44492 8.496 8.54092 2.4 16.0449 2.4C23.5489 2.4 29.6449 8.496 29.6449 16C29.6449 19.712 28.1409 23.088 25.7089 25.552C25.2449 24.96 24.6529 24.416 23.9489 23.952Z" fill="#171717"/>
<path d="M16.0449 7.88818C12.7329 7.88818 10.0449 10.5762 10.0449 13.8882C10.0449 17.1362 12.5889 19.7762 15.9649 19.8722C16.0129 19.8722 16.0769 19.8722 16.1089 19.8722C16.1409 19.8722 16.1889 19.8722 16.2209 19.8722C16.2369 19.8722 16.2529 19.8722 16.2529 19.8722C19.4849 19.7602 22.0289 17.1362 22.0449 13.8882C22.0449 10.5762 19.3569 7.88818 16.0449 7.88818Z" fill="#171717"/>
</svg>
