<svg width="17" height="18" viewBox="0 0 17 18" fill="none" xmlns="http://www.w3.org/2000/svg">
<path d="M1.42859 13.5002H15.5714M14.2857 0.643066H2.7143C2.37331 0.643066 2.04628 0.778525 1.80517 1.01964C1.56405 1.26076 1.42859 1.58779 1.42859 1.92878V16.0716C1.42859 16.4126 1.56405 16.7397 1.80517 16.9808C2.04628 17.2219 2.37331 17.3574 2.7143 17.3574H14.2857C14.6267 17.3574 14.9538 17.2219 15.1949 16.9808C15.436 16.7397 15.5714 16.4126 15.5714 16.0716V1.92878C15.5714 1.58779 15.436 1.26076 15.1949 1.01964C14.9538 0.778525 14.6267 0.643066 14.2857 0.643066Z" stroke="#171717" stroke-width="1.5" stroke-linecap="round" stroke-linejoin="round"/>
<path d="M4.64282 5.1431C5.39497 4.07981 6.84139 2.84167 7.85711 3.85738C9.14282 5.1431 5.02211 8.66981 6.57139 9.6431C8.26339 10.7064 10.768 5.36938 12.3571 6.42881C13.9463 7.48824 10.4285 9.6431 12.3571 10.9288" stroke="#171717" stroke-width="1.5" stroke-linecap="round" stroke-linejoin="round"/>
</svg>
