<svg width="12" height="13" viewBox="0 0 12 13" fill="none" xmlns="http://www.w3.org/2000/svg">
<path fill-rule="evenodd" clip-rule="evenodd" d="M6 0.5C4.64256 0.5 4.51423 2.86435 3.70608 3.69972C2.89792 4.53508 0.385466 3.57995 0.0363912 5.06269C-0.31195 6.54618 1.94824 7.04953 2.22691 8.32229C2.50705 9.59505 1.12615 11.3833 2.30611 12.2732C3.48607 13.1624 4.75623 11.1498 6 11.1498C7.24376 11.1498 8.51392 13.1624 9.69388 12.2732C10.8738 11.3833 9.49368 9.59505 9.77308 8.32229C10.0525 7.04953 12.3119 6.54618 11.9636 5.06269C11.6153 3.57995 9.10207 4.53508 8.29465 3.69972C7.4865 2.86435 7.35743 0.5 6 0.5Z" fill="#3198F5"/>
</svg>
