<svg width="21" height="20" viewBox="0 0 21 20" fill="none" xmlns="http://www.w3.org/2000/svg">
<path d="M10.0451 1.66699C14.6476 1.66699 18.3784 5.39783 18.3784 10.0003C18.3784 14.6028 14.6476 18.3337 10.0451 18.3337C5.44256 18.3337 1.71173 14.6028 1.71173 10.0003C1.71173 5.39783 5.44256 1.66699 10.0451 1.66699ZM11.4476 13.292C10.5134 13.3474 9.57675 13.3474 8.64256 13.292C8.7559 13.947 8.90006 14.537 9.06756 15.0403C9.27756 15.6703 9.50923 16.1203 9.7259 16.3953C9.79923 16.487 9.91173 16.667 10.0467 16.667C10.1676 16.6562 10.2984 16.4778 10.3634 16.3953C10.5801 16.1203 10.8126 15.6703 11.0217 15.0403C11.2071 14.469 11.35 13.8846 11.4476 13.292ZM16.3059 12.2962C16.0851 12.3912 15.8526 12.4787 15.6117 12.5587C14.9017 12.7953 14.0717 12.9853 13.1617 13.117C13.0477 13.9484 12.8609 14.7683 12.6034 15.567C12.5234 15.8087 12.4359 16.0403 12.3409 16.2612C13.2495 15.9268 14.0746 15.399 14.7592 14.7144C15.4437 14.0298 15.9715 13.2047 16.3059 12.2962ZM3.78423 12.2962C4.11864 13.2047 4.64638 14.0298 5.33097 14.7144C6.01556 15.399 6.84066 15.9268 7.74923 16.2612C7.65201 16.0336 7.56444 15.802 7.48673 15.567C7.22922 14.7683 7.04239 13.9484 6.9284 13.117C6.09695 13.003 5.27713 12.8162 4.4784 12.5587C4.23673 12.4787 4.00506 12.3912 3.78423 12.2962ZM8.4384 8.39366C8.35739 9.46324 8.35739 10.5374 8.4384 11.607C9.50673 11.6878 10.5834 11.6878 11.6517 11.607C11.7327 10.5374 11.7327 9.46324 11.6517 8.39366C10.5822 8.31264 9.50798 8.31264 8.4384 8.39366ZM13.3367 8.59783C13.3921 9.53201 13.3921 10.4686 13.3367 11.4028C13.9293 11.305 14.5137 11.1629 15.0851 10.9778C15.7151 10.7678 16.1651 10.5362 16.4401 10.3195C16.5317 10.247 16.7117 10.1328 16.7117 9.99866C16.7009 9.87783 16.5226 9.74699 16.4401 9.68199C16.1651 9.46533 15.7151 9.23283 15.0851 9.02366C14.5137 8.83855 13.9293 8.69566 13.3367 8.59783ZM6.7534 8.59783C6.0984 8.71116 5.50923 8.85533 5.00506 9.02283C4.37506 9.23283 3.9259 9.46449 3.65006 9.68116C3.45006 9.83949 3.39006 9.95866 3.3809 9.98783C3.3434 10.1128 3.57256 10.257 3.65006 10.3187C3.92506 10.5353 4.37506 10.7678 5.00506 10.977C5.50923 11.1453 6.0984 11.2895 6.7534 11.402C6.69804 10.4684 6.69804 9.53145 6.7534 8.59783ZM7.74923 3.73949C6.84069 4.07395 6.01561 4.60171 5.33103 5.28629C4.64645 5.97087 4.11869 6.79595 3.78423 7.70449C4.00506 7.60949 4.23756 7.52199 4.4784 7.44199C5.27713 7.18448 6.09695 6.99765 6.9284 6.88366C7.06006 5.97366 7.25006 5.14366 7.48673 4.43366C7.56673 4.19199 7.65423 3.96033 7.74923 3.73949ZM12.3409 3.73949C12.4359 3.96033 12.5234 4.19283 12.6034 4.43366C12.8401 5.14366 13.0301 5.97366 13.1617 6.88366C14.0717 7.01533 14.9017 7.20533 15.6117 7.44199C15.8534 7.52199 16.0851 7.60949 16.3059 7.70449C15.9715 6.79592 15.4437 5.97082 14.7592 5.28623C14.0746 4.60164 13.2495 4.0739 12.3409 3.73949ZM10.0451 3.33366C9.92923 3.33366 9.78506 3.53116 9.72673 3.60533C9.51006 3.88033 9.27756 4.33033 9.0684 4.96033C8.88329 5.53168 8.74123 6.11609 8.6434 6.70866C9.57702 6.6533 10.5131 6.6533 11.4467 6.70866C11.3489 6.11609 11.2068 5.53168 11.0217 4.96033C10.8126 4.33033 10.5801 3.88116 10.3634 3.60533C10.3051 3.53033 10.1617 3.33366 10.0451 3.33366Z" fill="#171717"/>
</svg>
