<svg width="32" height="32" viewBox="0 0 32 32" fill="none" xmlns="http://www.w3.org/2000/svg">
<path opacity="0.4" d="M27.3334 13.5866H23.48C20.32 13.5866 17.7467 11.0133 17.7467 7.85329V3.99996C17.7467 3.26663 17.1467 2.66663 16.4134 2.66663H10.76C6.65337 2.66663 3.33337 5.33329 3.33337 10.0933V21.9066C3.33337 26.6666 6.65337 29.3333 10.76 29.3333H21.24C25.3467 29.3333 28.6667 26.6666 28.6667 21.9066V14.92C28.6667 14.1866 28.0667 13.5866 27.3334 13.5866Z" fill="#3198F5"/>
<path d="M21.0667 2.9467C20.52 2.40003 19.5734 2.77336 19.5734 3.53336V8.1867C19.5734 10.1334 21.2267 11.7467 23.24 11.7467C24.5067 11.76 26.2667 11.76 27.7734 11.76C28.5334 11.76 28.9334 10.8667 28.4 10.3334C26.48 8.40003 23.04 4.92003 21.0667 2.9467Z" fill="#3198F5"/>
<path d="M18 18.3334H10C9.45333 18.3334 9 17.88 9 17.3334C9 16.7867 9.45333 16.3334 10 16.3334H18C18.5467 16.3334 19 16.7867 19 17.3334C19 17.88 18.5467 18.3334 18 18.3334Z" fill="#3198F5"/>
<path d="M15.3333 23.6666H10C9.45333 23.6666 9 23.2133 9 22.6666C9 22.12 9.45333 21.6666 10 21.6666H15.3333C15.88 21.6666 16.3333 22.12 16.3333 22.6666C16.3333 23.2133 15.88 23.6666 15.3333 23.6666Z" fill="#3198F5"/>
</svg>
