<svg width="33" height="32" viewBox="0 0 33 32" fill="none" xmlns="http://www.w3.org/2000/svg">
<path opacity="0.4" d="M24.04 10.36C23.9467 10.3466 23.8533 10.3466 23.76 10.36C21.6933 10.2933 20.0533 8.59996 20.0533 6.51996C20.0533 4.39996 21.7733 2.66663 23.9067 2.66663C26.0267 2.66663 27.76 4.38663 27.76 6.51996C27.7467 8.59996 26.1067 10.2933 24.04 10.36Z" fill="#3198F5"/>
<path opacity="0.4" d="M28.3866 19.6C26.8933 20.6 24.7999 20.9734 22.8666 20.72C23.3733 19.6267 23.6399 18.4134 23.6533 17.1334C23.6533 15.8 23.3599 14.5334 22.7999 13.4267C24.7733 13.1601 26.8666 13.5334 28.3733 14.5334C30.4799 15.92 30.4799 18.2 28.3866 19.6Z" fill="#3198F5"/>
<path opacity="0.4" d="M9.25332 10.36C9.34665 10.3466 9.43999 10.3466 9.53333 10.36C11.6 10.2933 13.24 8.59996 13.24 6.51996C13.24 4.39996 11.52 2.66663 9.38666 2.66663C7.26666 2.66663 5.53333 4.38663 5.53333 6.51996C5.54666 8.59996 7.18665 10.2933 9.25332 10.36Z" fill="#3198F5"/>
<path opacity="0.4" d="M9.39999 17.1334C9.39999 18.4267 9.67999 19.6534 10.1867 20.7601C8.30666 20.9601 6.34666 20.5601 4.90666 19.6134C2.79999 18.2134 2.79999 15.9334 4.90666 14.5334C6.33333 13.5734 8.34666 13.1867 10.24 13.4001C9.69333 14.5201 9.39999 15.7867 9.39999 17.1334Z" fill="#3198F5"/>
<path d="M16.8267 21.16C16.72 21.1467 16.6 21.1467 16.48 21.16C14.0267 21.08 12.0667 19.0667 12.0667 16.5867C12.0667 14.0533 14.1067 12 16.6533 12C19.1867 12 21.24 14.0533 21.24 16.5867C21.24 19.0667 19.2933 21.08 16.8267 21.16Z" fill="#3198F5"/>
<path d="M12.4933 23.92C10.4799 25.2667 10.4799 27.48 12.4933 28.8134C14.7866 30.3467 18.5466 30.3467 20.8399 28.8134C22.8533 27.4667 22.8533 25.2534 20.8399 23.92C18.5599 22.3867 14.7999 22.3867 12.4933 23.92Z" fill="#3198F5"/>
</svg>
