<svg width="19" height="10" viewBox="0 0 19 10" fill="none" xmlns="http://www.w3.org/2000/svg">
<path d="M6.05 1.25H3.95C3.83065 1.25 3.71619 1.29741 3.6318 1.3818C3.54741 1.46619 3.5 1.58065 3.5 1.7V8.3C3.5 8.35909 3.51164 8.41761 3.53425 8.47221C3.55687 8.5268 3.59002 8.57641 3.6318 8.6182C3.67359 8.65998 3.7232 8.69313 3.77779 8.71575C3.83239 8.73836 3.89091 8.75 3.95 8.75H6.05C6.10909 8.75 6.16761 8.73836 6.22221 8.71575C6.2768 8.69313 6.32641 8.65998 6.3682 8.6182C6.40998 8.57641 6.44313 8.5268 6.46575 8.47221C6.48836 8.41761 6.5 8.35909 6.5 8.3V1.7C6.5 1.58065 6.45259 1.46619 6.3682 1.3818C6.28381 1.29741 6.16935 1.25 6.05 1.25ZM15.05 1.25H12.95C12.8307 1.25 12.7162 1.29741 12.6318 1.3818C12.5474 1.46619 12.5 1.58065 12.5 1.7V8.3C12.5 8.35909 12.5116 8.41761 12.5343 8.47221C12.5569 8.5268 12.59 8.57641 12.6318 8.6182C12.6736 8.65998 12.7232 8.69313 12.7778 8.71575C12.8324 8.73836 12.8909 8.75 12.95 8.75H15.05C15.1091 8.75 15.1676 8.73836 15.2222 8.71575C15.2768 8.69313 15.3264 8.65998 15.3682 8.6182C15.41 8.57641 15.4431 8.5268 15.4657 8.47221C15.4884 8.41761 15.5 8.35909 15.5 8.3V1.7C15.5 1.58065 15.4526 1.46619 15.3682 1.3818C15.2838 1.29741 15.1693 1.25 15.05 1.25Z" stroke="#171717" stroke-width="1.5" stroke-linecap="round" stroke-linejoin="round"/>
<path d="M6.5 5H12.5M1.25 6.8V3.2C1.25 3.08065 1.29741 2.96619 1.3818 2.8818C1.46619 2.79741 1.58065 2.75 1.7 2.75H3.05C3.16935 2.75 3.28381 2.79741 3.3682 2.8818C3.45259 2.96619 3.5 3.08065 3.5 3.2V6.8C3.5 6.91935 3.45259 7.03381 3.3682 7.1182C3.28381 7.20259 3.16935 7.25 3.05 7.25H1.7C1.58065 7.25 1.46619 7.20259 1.3818 7.1182C1.29741 7.03381 1.25 6.91935 1.25 6.8ZM17.75 6.8V3.2C17.75 3.08065 17.7026 2.96619 17.6182 2.8818C17.5338 2.79741 17.4193 2.75 17.3 2.75H15.95C15.8307 2.75 15.7162 2.79741 15.6318 2.8818C15.5474 2.96619 15.5 3.08065 15.5 3.2V6.8C15.5 6.91935 15.5474 7.03381 15.6318 7.1182C15.7162 7.20259 15.8307 7.25 15.95 7.25H17.3C17.4193 7.25 17.5338 7.20259 17.6182 7.1182C17.7026 7.03381 17.75 6.91935 17.75 6.8Z" stroke="#171717" stroke-width="1.5" stroke-linecap="round" stroke-linejoin="round"/>
</svg>
