<svg width="33" height="32" viewBox="0 0 33 32" fill="none" xmlns="http://www.w3.org/2000/svg">
<path d="M6.99989 14.6667V20L3.94656 23.0533C3.69823 23.3032 3.55884 23.6411 3.55884 23.9933C3.55884 24.3456 3.69823 24.6835 3.94656 24.9333L7.38656 28.3867C7.51051 28.5116 7.65798 28.6108 7.82046 28.6785C7.98294 28.7462 8.15721 28.7811 8.33323 28.7811C8.50924 28.7811 8.68352 28.7462 8.846 28.6785C9.00848 28.6108 9.15594 28.5116 9.27989 28.3867L14.9999 22.6667H20.3332C20.6869 22.6667 21.026 22.5262 21.276 22.2761C21.5261 22.0261 21.6666 21.687 21.6666 21.3333V20H22.9999C23.3535 20 23.6927 19.8595 23.9427 19.6095C24.1928 19.3594 24.3332 19.0203 24.3332 18.6667V17.3333H25.6666C26.0202 17.3333 26.3593 17.1929 26.6094 16.9428C26.8594 16.6928 26.9999 16.3536 26.9999 16V14.6667H17.6666V16C17.6666 16.7072 17.3856 17.3855 16.8855 17.8856C16.3854 18.3857 15.7071 18.6667 14.9999 18.6667H12.3332C11.626 18.6667 10.9477 18.3857 10.4476 17.8856C9.94751 17.3855 9.66656 16.7072 9.66656 16V12L6.99989 14.6667Z" fill="#3198F5"/>
<path opacity="0.4" d="M18.9999 7.99996H14.9999C14.2927 7.99996 13.6144 8.28092 13.1143 8.78101C12.6142 9.28111 12.3333 9.95939 12.3333 10.6666V14.6666C12.3333 15.0203 12.4737 15.3594 12.7238 15.6094C12.9738 15.8595 13.313 16 13.6666 16C14.0202 16 14.3593 15.8595 14.6094 15.6094C14.8594 15.3594 14.9999 15.0203 14.9999 14.6666V12H20.3333H25.6666L28.7199 8.9333C28.9683 8.68348 29.1076 8.34555 29.1076 7.9933C29.1076 7.64105 28.9683 7.30311 28.7199 7.0533L25.2799 3.59996C25.156 3.47499 25.0085 3.3758 24.846 3.30811C24.6835 3.24042 24.5093 3.20557 24.3333 3.20557C24.1572 3.20557 23.983 3.24042 23.8205 3.30811C23.658 3.3758 23.5105 3.47499 23.3866 3.59996L18.9999 7.99996Z" fill="#3198F5"/>
</svg>
