<svg width="17" height="18" viewBox="0 0 17 18" fill="none" xmlns="http://www.w3.org/2000/svg">
<path d="M8.5 16.5C12.6421 16.5 16 13.1421 16 9C16 4.85786 12.6421 1.5 8.5 1.5C4.35786 1.5 1 4.85786 1 9C1 13.1421 4.35786 16.5 8.5 16.5Z" stroke="#171717" stroke-width="1.5" stroke-linecap="round" stroke-linejoin="round"/>
<path d="M3.19751 3.69727L6.37751 6.87727M10.6225 6.87727L13.8025 3.69727M10.6225 11.1223L13.8025 14.3023M6.37751 11.1223L3.19751 14.3023" stroke="#171717" stroke-width="1.5" stroke-linecap="round" stroke-linejoin="round"/>
<path d="M8.5 12C10.1569 12 11.5 10.6569 11.5 9C11.5 7.34315 10.1569 6 8.5 6C6.84315 6 5.5 7.34315 5.5 9C5.5 10.6569 6.84315 12 8.5 12Z" stroke="#171717" stroke-width="1.5" stroke-linecap="round" stroke-linejoin="round"/>
</svg>
