<svg width="18" height="17" viewBox="0 0 18 17" fill="none" xmlns="http://www.w3.org/2000/svg">
<path opacity="0.25" d="M16.8243 14.7954L15.2368 16.3829C15.2368 16.3829 11.1121 18.1506 5.21951 12.2581C-0.673051 6.36552 1.09472 2.24073 1.09472 2.24073L2.68216 0.65329C3.39934 -0.0638924 4.58546 0.0204037 5.194 0.831803L6.70923 2.85211C7.20688 3.51564 7.1409 4.44413 6.55441 5.03062L5.2195 6.36552C5.2195 6.36552 5.21951 7.54403 7.57653 9.90106C9.93355 12.2581 11.1121 12.2581 11.1121 12.2581L12.447 10.9232C13.0335 10.3367 13.9619 10.2707 14.6255 10.7684L16.6458 12.2836C17.4572 12.8921 17.5415 14.0782 16.8243 14.7954Z" fill="white"/>
</svg>
