<svg width="14" height="14" viewBox="0 0 14 14" fill="none" xmlns="http://www.w3.org/2000/svg">
<path opacity="0.7" d="M13.3049 12.0534L12.035 13.3234C12.035 13.3234 8.73516 14.7376 4.02111 10.0236C-0.692933 5.30951 0.721281 2.00968 0.721281 2.00968L1.99124 0.739722C2.56498 0.165976 3.51387 0.233413 4.00071 0.882532L5.21289 2.49877C5.61101 3.0296 5.55823 3.77239 5.08904 4.24158L4.02111 5.30951C4.02111 5.30951 4.02111 6.25232 5.90673 8.13794C7.79235 10.0236 8.73516 10.0236 8.73516 10.0236L9.80308 8.95563C10.2723 8.48644 11.0151 8.43365 11.5459 8.83177L13.1621 10.044C13.8113 10.5308 13.8787 11.4797 13.3049 12.0534Z" fill="#171717"/>
</svg>
