<svg width="40" height="40" viewBox="0 0 40 40" fill="none" xmlns="http://www.w3.org/2000/svg">
<rect x="0.5" y="0.5" width="39" height="39" rx="19.5" fill="white"/>
<rect x="0.5" y="0.5" width="39" height="39" rx="19.5" stroke="#D3E9FD"/>
<path d="M21.2412 20.0825L17.5842 16.4255C17.5111 16.3589 17.4521 16.2784 17.4107 16.1886C17.3693 16.0989 17.3463 16.0017 17.3432 15.9029C17.34 15.8041 17.3566 15.7057 17.3922 15.6134C17.4277 15.5212 17.4814 15.437 17.55 15.3659C17.6187 15.2948 17.7009 15.2381 17.7918 15.1994C17.8828 15.1606 17.9806 15.1404 18.0794 15.1401C18.1783 15.1398 18.2762 15.1593 18.3673 15.1975C18.4585 15.2357 18.5411 15.2918 18.6102 15.3625L18.6282 15.3805L22.8082 19.5595C22.9468 19.6981 23.0246 19.886 23.0246 20.082C23.0246 20.278 22.9468 20.4659 22.8082 20.6045L18.6292 24.7835C18.5618 24.8533 18.4812 24.9091 18.3922 24.9478C18.3032 24.9865 18.2075 25.0073 18.1104 25.0089C18.0134 25.0106 17.917 24.9931 17.8267 24.9575C17.7364 24.922 17.654 24.8689 17.5842 24.8015C17.5144 24.7341 17.4586 24.6535 17.4199 24.5645C17.3812 24.4755 17.3604 24.3798 17.3588 24.2827C17.3571 24.1857 17.3746 24.0893 17.4102 23.999C17.4457 23.9087 17.4988 23.8263 17.5662 23.7565L17.5842 23.7385L21.2412 20.0825Z" fill="#171717" stroke="#171717" stroke-width="0.5"/>
</svg>
