<svg width="16" height="17" viewBox="0 0 16 17" fill="none" xmlns="http://www.w3.org/2000/svg">
<path d="M14.6811 7.94271C14.5924 7.76529 14.462 7.61202 14.3011 7.49605L13.4144 6.82938C13.3683 6.79758 13.3352 6.75025 13.3211 6.69605C13.3012 6.64227 13.3012 6.58315 13.3211 6.52938L13.6878 5.44271C13.7466 5.24837 13.7603 5.04315 13.7278 4.84271C13.697 4.63858 13.6144 4.44576 13.4878 4.28271C13.3658 4.11963 13.2055 3.98911 13.0211 3.90271C12.8447 3.81801 12.6499 3.77904 12.4544 3.78938H11.4544C11.3953 3.78866 11.338 3.76878 11.2911 3.73272C11.2442 3.69665 11.2103 3.64636 11.1944 3.58938L10.9078 2.58938C10.8525 2.3865 10.747 2.2008 10.6011 2.04938C10.4556 1.90151 10.2775 1.78966 10.0811 1.72271C9.88257 1.6618 9.67255 1.6481 9.46778 1.68271C9.2647 1.72238 9.0746 1.8117 8.91445 1.94271L8.15445 2.54271C8.11232 2.58068 8.05782 2.60201 8.00111 2.60271C7.94992 2.6076 7.8985 2.59592 7.85445 2.56938L7.10111 1.96938C6.94647 1.843 6.76345 1.75606 6.56778 1.71605C6.37501 1.66938 6.17389 1.66938 5.98111 1.71605C5.7878 1.76975 5.60973 1.86792 5.46111 2.00271C5.30906 2.15001 5.19276 2.33017 5.12111 2.52938L4.83445 3.53605C4.81989 3.5954 4.78438 3.64749 4.73445 3.68271C4.68175 3.71883 4.61806 3.73534 4.55445 3.72938H3.60778C3.40325 3.72136 3.19979 3.76252 3.01445 3.84938C2.82639 3.93287 2.66328 4.06382 2.54111 4.22938C2.4184 4.3922 2.33614 4.58186 2.30111 4.78271C2.26778 4.97805 2.28111 5.17938 2.34111 5.36938L2.66778 6.49538C2.68497 6.54891 2.68523 6.60644 2.66852 6.66013C2.65182 6.71382 2.61897 6.76105 2.57445 6.79538L1.68778 7.46205C1.52645 7.58205 1.39445 7.73671 1.30111 7.91538C1.21353 8.09263 1.16797 8.28767 1.16797 8.48538C1.16797 8.68309 1.21353 8.87813 1.30111 9.05538C1.39416 9.23372 1.52635 9.3887 1.68778 9.50871L2.57445 10.1754C2.61897 10.2097 2.65182 10.2569 2.66852 10.3106C2.68523 10.3643 2.68497 10.4218 2.66778 10.4754L2.30111 11.562C2.23901 11.758 2.22304 11.9656 2.25445 12.1687C2.28778 12.3674 2.37045 12.5554 2.49445 12.7154C2.61645 12.882 2.77978 13.0154 2.96778 13.102C3.14445 13.186 3.33911 13.2247 3.53445 13.2154H4.52778C4.58791 13.2128 4.64699 13.2317 4.69445 13.2687C4.74237 13.3017 4.77578 13.3518 4.78778 13.4087L5.07445 14.4154C5.1337 14.6146 5.23871 14.7973 5.38111 14.9487C5.59853 15.1751 5.89263 15.3123 6.20584 15.3332C6.51905 15.3542 6.8288 15.2575 7.07445 15.062L7.84111 14.4554C7.88736 14.418 7.94501 14.3977 8.00445 14.3977C8.06389 14.3977 8.12153 14.418 8.16778 14.4554L8.92111 15.0554C9.08111 15.19 9.27445 15.28 9.48111 15.3154C9.55645 15.322 9.63245 15.322 9.70778 15.3154C9.839 15.3155 9.96944 15.2953 10.0944 15.2554C10.2923 15.1931 10.4716 15.0825 10.6159 14.9335C10.7603 14.7845 10.8652 14.6018 10.9211 14.402L11.2144 13.3887C11.2264 13.3318 11.2599 13.2817 11.3078 13.2487C11.3593 13.2097 11.4233 13.1908 11.4878 13.1954H12.4411C12.645 13.2035 12.8479 13.1647 13.0344 13.082C13.2183 12.9943 13.3784 12.8638 13.5013 12.7014C13.6243 12.539 13.7065 12.3494 13.7411 12.1487C13.7756 11.9435 13.7596 11.733 13.6944 11.5354L13.3344 10.4554C13.3145 10.4016 13.3145 10.3425 13.3344 10.2887C13.3485 10.2345 13.3817 10.1872 13.4278 10.1554L14.3144 9.48871C14.4756 9.37028 14.606 9.21479 14.6944 9.03538C14.7876 8.8587 14.8357 8.66177 14.8344 8.46205C14.8219 8.27961 14.7695 8.10279 14.6811 7.94271ZM11.0544 7.43538L8.10778 10.382C7.99359 10.4936 7.86039 10.584 7.71445 10.6487C7.56645 10.7087 7.40778 10.7407 7.24778 10.742C7.08467 10.7429 6.92326 10.7088 6.77445 10.642C6.62502 10.5801 6.48914 10.4895 6.37445 10.3754L4.92111 8.91538C4.8119 8.78785 4.75483 8.6238 4.76131 8.45601C4.76779 8.28823 4.83734 8.12907 4.95607 8.01034C5.0748 7.89161 5.23396 7.82205 5.40174 7.81557C5.56953 7.80909 5.73358 7.86616 5.86111 7.97538L7.24778 9.36205L10.1144 6.48871C10.2394 6.36455 10.4083 6.29485 10.5844 6.29485C10.7606 6.29485 10.9295 6.36455 11.0544 6.48871C11.1212 6.55097 11.1745 6.6263 11.2109 6.71003C11.2473 6.79376 11.2661 6.88408 11.2661 6.97538C11.2661 7.06668 11.2473 7.157 11.2109 7.24073C11.1745 7.32446 11.1212 7.39979 11.0544 7.46205V7.43538Z" fill="#F5AA00"/>
</svg>
