<svg width="16" height="16" viewBox="0 0 16 16" fill="none" xmlns="http://www.w3.org/2000/svg">
<path d="M14.6811 7.44271C14.5924 7.26529 14.462 7.11202 14.3011 6.99605L13.4144 6.32938C13.3683 6.29758 13.3352 6.25025 13.3211 6.19605C13.3012 6.14227 13.3012 6.08315 13.3211 6.02938L13.6878 4.94271C13.7466 4.74837 13.7603 4.54315 13.7278 4.34271C13.697 4.13858 13.6144 3.94576 13.4878 3.78271C13.3658 3.61963 13.2055 3.48911 13.0211 3.40271C12.8447 3.31801 12.6499 3.27904 12.4544 3.28938H11.4544C11.3953 3.28866 11.338 3.26878 11.2911 3.23272C11.2442 3.19665 11.2103 3.14636 11.1944 3.08938L10.9078 2.08938C10.8525 1.8865 10.747 1.7008 10.6011 1.54938C10.4556 1.40151 10.2775 1.28966 10.0811 1.22271C9.88257 1.1618 9.67255 1.1481 9.46778 1.18271C9.2647 1.22238 9.0746 1.3117 8.91445 1.44271L8.15445 2.04271C8.11232 2.08068 8.05782 2.10201 8.00111 2.10271C7.94992 2.1076 7.8985 2.09592 7.85445 2.06938L7.10111 1.46938C6.94647 1.343 6.76345 1.25606 6.56778 1.21605C6.37501 1.16938 6.17389 1.16938 5.98111 1.21605C5.7878 1.26975 5.60973 1.36792 5.46111 1.50271C5.30906 1.65001 5.19276 1.83017 5.12111 2.02938L4.83445 3.03605C4.81989 3.0954 4.78438 3.14749 4.73445 3.18271C4.68175 3.21883 4.61806 3.23534 4.55445 3.22938H3.60778C3.40325 3.22136 3.19979 3.26252 3.01445 3.34938C2.82639 3.43287 2.66328 3.56382 2.54111 3.72938C2.4184 3.8922 2.33614 4.08186 2.30111 4.28271C2.26778 4.47805 2.28111 4.67938 2.34111 4.86938L2.66778 5.99538C2.68497 6.04891 2.68523 6.10644 2.66852 6.16013C2.65182 6.21382 2.61897 6.26105 2.57445 6.29538L1.68778 6.96205C1.52645 7.08205 1.39445 7.23671 1.30111 7.41538C1.21353 7.59263 1.16797 7.78767 1.16797 7.98538C1.16797 8.18309 1.21353 8.37813 1.30111 8.55538C1.39416 8.73372 1.52635 8.8887 1.68778 9.00871L2.57445 9.67538C2.61897 9.70971 2.65182 9.75694 2.66852 9.81063C2.68523 9.86432 2.68497 9.92185 2.66778 9.97538L2.30111 11.062C2.23901 11.258 2.22304 11.4656 2.25445 11.6687C2.28778 11.8674 2.37045 12.0554 2.49445 12.2154C2.61645 12.382 2.77978 12.5154 2.96778 12.602C3.14445 12.686 3.33911 12.7247 3.53445 12.7154H4.52778C4.58791 12.7128 4.64699 12.7317 4.69445 12.7687C4.74237 12.8017 4.77578 12.8518 4.78778 12.9087L5.07445 13.9154C5.1337 14.1146 5.23871 14.2973 5.38111 14.4487C5.59853 14.6751 5.89263 14.8123 6.20584 14.8332C6.51905 14.8542 6.8288 14.7575 7.07445 14.562L7.84111 13.9554C7.88736 13.918 7.94501 13.8977 8.00445 13.8977C8.06389 13.8977 8.12153 13.918 8.16778 13.9554L8.92111 14.5554C9.08111 14.69 9.27445 14.78 9.48111 14.8154C9.55645 14.822 9.63245 14.822 9.70778 14.8154C9.839 14.8155 9.96944 14.7953 10.0944 14.7554C10.2923 14.6931 10.4716 14.5825 10.6159 14.4335C10.7603 14.2845 10.8652 14.1018 10.9211 13.902L11.2144 12.8887C11.2264 12.8318 11.2599 12.7817 11.3078 12.7487C11.3593 12.7097 11.4233 12.6908 11.4878 12.6954H12.4411C12.645 12.7035 12.8479 12.6647 13.0344 12.582C13.2183 12.4943 13.3784 12.3638 13.5013 12.2014C13.6243 12.039 13.7065 11.8494 13.7411 11.6487C13.7756 11.4435 13.7596 11.233 13.6944 11.0354L13.3344 9.95538C13.3145 9.90161 13.3145 9.84248 13.3344 9.78871C13.3485 9.73451 13.3817 9.68718 13.4278 9.65538L14.3144 8.98871C14.4756 8.87028 14.606 8.71479 14.6944 8.53538C14.7876 8.3587 14.8357 8.16177 14.8344 7.96205C14.8219 7.77961 14.7695 7.60279 14.6811 7.44271ZM11.0544 6.93538L8.10778 9.88205C7.99359 9.99365 7.86039 10.084 7.71445 10.1487C7.56645 10.2087 7.40778 10.2407 7.24778 10.242C7.08467 10.2429 6.92326 10.2088 6.77445 10.142C6.62502 10.0801 6.48914 9.98947 6.37445 9.87538L4.92111 8.41538C4.8119 8.28785 4.75483 8.1238 4.76131 7.95601C4.76779 7.78823 4.83734 7.62907 4.95607 7.51034C5.0748 7.39161 5.23396 7.32205 5.40174 7.31557C5.56953 7.30909 5.73358 7.36616 5.86111 7.47538L7.24778 8.86205L10.1144 5.98871C10.2394 5.86455 10.4083 5.79485 10.5844 5.79485C10.7606 5.79485 10.9295 5.86455 11.0544 5.98871C11.1212 6.05097 11.1745 6.1263 11.2109 6.21003C11.2473 6.29376 11.2661 6.38408 11.2661 6.47538C11.2661 6.56668 11.2473 6.657 11.2109 6.74073C11.1745 6.82446 11.1212 6.89979 11.0544 6.96205V6.93538Z" fill="white"/>
</svg>
