<svg width="18" height="18" viewBox="0 0 18 18" fill="none" xmlns="http://www.w3.org/2000/svg">
<path d="M17.35 8.30339C17.2392 8.08161 17.0762 7.89003 16.875 7.74506L15.7667 6.91173C15.7091 6.87197 15.6677 6.81282 15.65 6.74506C15.6252 6.67784 15.6252 6.60394 15.65 6.53672L16.1084 5.17839C16.1819 4.93546 16.199 4.67894 16.1584 4.42839C16.1199 4.17323 16.0166 3.9322 15.8584 3.72839C15.7059 3.52454 15.5056 3.36139 15.2751 3.25339C15.0546 3.14751 14.811 3.0988 14.5667 3.11172H13.3167C13.2428 3.11083 13.1711 3.08597 13.1125 3.0409C13.0539 2.99582 13.0115 2.93295 12.9917 2.86172L12.6334 1.61172C12.5643 1.35813 12.4324 1.126 12.25 0.936725C12.0681 0.751893 11.8455 0.612074 11.6 0.528391C11.3519 0.452246 11.0893 0.435124 10.8334 0.478391C10.5795 0.527969 10.3419 0.639624 10.1417 0.803391L9.19172 1.55339C9.13906 1.60085 9.07093 1.62751 9.00005 1.62839C8.93605 1.6345 8.87179 1.6199 8.81672 1.58672L7.87505 0.836725C7.68174 0.678748 7.45297 0.570079 7.20838 0.520058C6.96742 0.461723 6.71601 0.461723 6.47505 0.520058C6.23341 0.58719 6.01081 0.709902 5.82505 0.878391C5.63499 1.06252 5.48961 1.28772 5.40005 1.53672L5.04172 2.79506C5.02352 2.86924 4.97913 2.93436 4.91672 2.97839C4.85084 3.02353 4.77123 3.04417 4.69172 3.03672H3.50838C3.25272 3.02671 2.99839 3.07814 2.76672 3.18672C2.53165 3.29109 2.32776 3.45477 2.17505 3.66172C2.02166 3.86525 1.91884 4.10232 1.87505 4.35339C1.83338 4.59756 1.85005 4.84923 1.92505 5.08672L2.33338 6.49423C2.35487 6.56114 2.35519 6.63305 2.33431 6.70016C2.31344 6.76727 2.27237 6.82631 2.21672 6.86923L1.10838 7.70256C0.906717 7.85256 0.741717 8.04589 0.62505 8.26923C0.515569 8.49078 0.458618 8.73459 0.458618 8.98172C0.458618 9.22886 0.515569 9.47267 0.62505 9.69423C0.741353 9.91716 0.906589 10.1109 1.10838 10.2609L2.21672 11.0942C2.27237 11.1371 2.31344 11.1962 2.33431 11.2633C2.35519 11.3304 2.35487 11.4023 2.33338 11.4692L1.87505 12.8276C1.79742 13.0725 1.77745 13.332 1.81672 13.5859C1.85838 13.8342 1.96172 14.0692 2.11672 14.2692C2.26922 14.4776 2.47338 14.6442 2.70838 14.7526C2.92922 14.8576 3.17255 14.9059 3.41672 14.8942H4.65838C4.73354 14.891 4.8074 14.9146 4.86672 14.9609C4.92662 15.0021 4.96839 15.0648 4.98338 15.1359L5.34172 16.3942C5.41578 16.6433 5.54705 16.8716 5.72505 17.0609C5.99682 17.3439 6.36445 17.5153 6.75595 17.5415C7.14746 17.5677 7.53466 17.4469 7.84172 17.2026L8.80005 16.4442C8.85786 16.3975 8.92992 16.3721 9.00422 16.3721C9.07852 16.3721 9.15057 16.3975 9.20838 16.4442L10.1501 17.1942C10.35 17.3626 10.5917 17.4751 10.85 17.5192C10.9442 17.5276 11.0392 17.5276 11.1334 17.5192C11.2974 17.5194 11.4605 17.4941 11.6167 17.4442C11.8641 17.3664 12.0881 17.2281 12.2685 17.0418C12.449 16.8556 12.5801 16.6273 12.65 16.3776L13.0167 15.1109C13.0317 15.0398 13.0735 14.9771 13.1334 14.9359C13.1978 14.8871 13.2778 14.8634 13.3584 14.8692H14.55C14.8049 14.8794 15.0586 14.8309 15.2917 14.7276C15.5215 14.6179 15.7216 14.4547 15.8753 14.2517C16.029 14.0487 16.1318 13.8118 16.175 13.5609C16.2182 13.3044 16.1982 13.0412 16.1167 12.7942L15.6667 11.4442C15.6418 11.377 15.6418 11.3031 15.6667 11.2359C15.6843 11.1681 15.7257 11.109 15.7834 11.0692L16.8917 10.2359C17.0932 10.0878 17.2561 9.89349 17.3667 9.66923C17.4831 9.44838 17.5433 9.20221 17.5417 8.95256C17.526 8.72451 17.4606 8.50349 17.35 8.30339ZM12.8167 7.66922L9.13338 11.3526C8.99065 11.4921 8.82415 11.6049 8.64172 11.6859C8.45672 11.7609 8.25838 11.8009 8.05838 11.8026C7.85449 11.8037 7.65273 11.7611 7.46672 11.6776C7.27993 11.6001 7.11008 11.4868 6.96672 11.3442L5.15005 9.51923C5.01353 9.35981 4.94219 9.15474 4.95029 8.94501C4.95839 8.73528 5.04534 8.53633 5.19375 8.38792C5.34216 8.23951 5.54111 8.15257 5.75084 8.14447C5.96057 8.13636 6.16563 8.2077 6.32505 8.34423L8.05838 10.0776L11.6417 6.48589C11.7979 6.33068 12.0091 6.24356 12.2292 6.24356C12.4494 6.24356 12.6606 6.33068 12.8167 6.48589C12.9002 6.56371 12.9668 6.65788 13.0123 6.76254C13.0578 6.86719 13.0813 6.9801 13.0813 7.09423C13.0813 7.20835 13.0578 7.32126 13.0123 7.42591C12.9668 7.53057 12.9002 7.62474 12.8167 7.70256V7.66922Z" fill="#3198F5"/>
</svg>
